<?xml version="1.0" encoding="utf-8"?>
<!-- Generator: Adobe Illustrator 19.2.1, SVG Export Plug-In . SVG Version: 6.00 Build 0)  -->
<svg version="1.1" id="Capa_1" xmlns="http://www.w3.org/2000/svg" xmlns:xlink="http://www.w3.org/1999/xlink" x="0px" y="0px"
	 viewBox="0 0 471.4 120" style="enable-background:new 0 0 471.4 120;" xml:space="preserve">
<style type="text/css">
	.st0{fill:#025DAE;}
	.st1{fill:#B4B4B4;}
</style>
<g>
	<path class="st0" d="M52.4,45.2c1.1,0.5,2.1,1,3.1,1.5c4.5,2.5,9.2,4.6,13.3,7.5c6.4,4.6,9.5,11.2,10.4,19c0.9,7.9-1,14.9-5.4,21.3
		c-0.8,1.1-1.7,2.2-2.3,3.6c1-0.8,2.1-1.6,3-2.5c7.6-7.7,11.2-16.9,10.8-27.8c-0.4-10-4.3-18.1-12-24.5c-5-4.2-10.7-7-16.7-9.3
		c-3.1-1.2-4.5-3.2-4.5-6.5c0.1-6,0-12,0-18.1c0.5,0,1-0.1,1.2,0c3.8,3.5,8.7,4.8,13.2,6.8c7,3.2,13.7,7,19.2,12.4
		C92,34.7,96,42,97.6,50.6c3,15.8-0.1,30.2-10.5,42.7c-7.4,9-16.9,14.7-28.5,16.8c-1.2,0.2-2.5,0.6-3.7,0.7c-1,0-2.4,0.8-2.8-1
		c-0.5-2.4,0.2-4.1,2.1-4.5c4.7-0.9,8.2-3.7,10.9-7.5c7.7-10.9,1.7-26.4-11.4-29.4c-1.1-0.2-1.7-0.4-1.7-1.7c0-6.8,0-13.5,0-20.3
		C52.2,46.1,52.3,45.8,52.4,45.2z"/>
	<path class="st0" d="M46.8,9c0,3.1,0,5.8,0,8.6c0,3.1-0.1,6.3,0,9.4c0.1,3.5-1.4,5.8-4.7,7c-6.3,2.4-12.2,5.4-17.2,9.9
		C19,49.1,15.3,55.4,14.1,63c-1.9,11.8,0.9,22.3,9,31.3c1.3,1.4,2.8,2.6,4.5,3.5c-1.1-1.6-2.4-3.1-3.4-4.7
		C16.8,82,17.9,65.1,28,55.7c4.2-3.9,9.3-6.4,14.5-8.7c1.3-0.6,2.6-1.2,4.2-2c0,1.6,0,2.7,0,3.8c0,5.6-0.1,11.1,0,16.7
		c0,1.8-0.4,2.6-2.4,3c-7.7,1.8-13.2,8.7-14,16.8c-0.9,9.3,5.1,16.9,11.7,19.2c0.6,0.2,1.1,0.4,1.7,0.5c2.6,0.6,3.7,2.3,2.7,4.7
		c-0.2,0.6-1.7,1.1-2.4,0.9c-3.7-0.7-7.4-1.2-10.9-2.5c-16.3-6-27.1-17.4-31.5-34.1C-2,59.3-0.1,45,9.6,32.5
		C15,25.6,22.2,21.1,30,17.3c3.5-1.7,7.1-3.1,10.5-4.8c1.6-0.8,3.1-1.9,4.6-2.8C45.5,9.5,46,9.4,46.8,9z"/>
	<path class="st1" d="M342,78.7c-2.9,0-5.6,0-8.5,0c0-12,0-23.9,0-36c2.6,0,5.2,0,8.1,0c-0.1,1.8-0.3,3.6-0.4,5.3
		c0.1,0.1,0.3,0.2,0.4,0.3c0.5-0.5,1-1,1.4-1.6c3.8-5.2,11.4-6.8,16.3-3c1.5,1.1,2.4,3.1,3.7,4.8c0.6-0.7,1.3-1.5,1.9-2.3
		c3.5-4.8,10.9-6,15.8-2.8c3.1,2.1,4,5.4,4.1,8.7c0.2,8.8,0.1,17.5,0.1,26.4c-2.9,0-5.6,0-8.6,0c0-2.6,0-5,0-7.5
		c0-5.2,0-10.3,0-15.5c0-0.3,0-0.5,0-0.8c-0.2-2.2-0.2-4.5-2.7-5.6c-2.2-0.9-5.2,0.1-7,2.2c-2.3,2.6-3.2,5.7-3.2,9
		c-0.1,5.3,0,10.6,0,15.9c0,0.7,0,1.4,0,2.4c-2.6,0-5,0-7.4,0c-1.4,0-1.2-1-1.2-1.8c0-6.9,0-13.8,0-20.7c0-0.8,0-1.6,0-2.4
		c-0.2-4.4-3.8-6.3-7.6-3.9c-3.6,2.3-5,6-5.1,10.1c-0.2,5.6,0,11.2,0,16.9C342.1,77.5,342,78,342,78.7z"/>
	<path class="st1" d="M287.1,79.4c-9.5,0-15.2-5.5-16-14.8c-0.5-6,0.3-11.6,4.2-16.4c4-5,9.4-7,15.6-6.2c8.9,1.1,13.3,5.9,14.1,15.6
		c0.6,7.6-1.5,14.3-8.1,19C293.9,78.6,290.5,79.5,287.1,79.4z M296.4,60.4c-0.1,0-0.2-0.1-0.3-0.1c-0.2-1.5-0.2-2.9-0.5-4.4
		c-0.8-4-3.1-6.3-6.5-6.5c-3.9-0.3-7,1.6-8.3,5.5c-1.3,3.9-1.2,7.8,0,11.6c1.1,3.4,3.4,5.1,6.8,5.3c3.2,0.2,6.1-1.5,7.2-4.7
		C295.6,65,295.9,62.6,296.4,60.4z"/>
	<path class="st1" d="M471.4,78.7c-2.8,0-5.3,0-8,0c0-1.7,0-3.4,0-5.1c-0.1-0.1-0.3-0.1-0.4-0.2c-0.4,0.5-0.9,1-1.3,1.5
		c-3.2,3.7-7.3,5.1-12.1,4.2c-3.3-0.6-5.8-2.4-6.8-5.7c-1.4-4.1-0.5-7.9,2.5-10.9c3.8-4,8.9-5.1,14.2-5.5c3.3-0.2,3.3-0.1,3.2-3.3
		c-0.1-3.3-2.1-5.3-6-5.2c-3.1,0.1-6.3,1.1-9.4,1.7c-0.6,0.1-1.1,0.4-1.9,0.7c-0.3-2.1-0.5-4.1-0.7-6.1c0-0.3,0.3-1,0.6-1.1
		c6.9-2.2,13.8-3.3,20.7-0.3c2.7,1.2,4.2,3.3,4.8,6.1c0.4,1.9,0.7,4,0.7,5.9C471.4,63.2,471.4,70.8,471.4,78.7z M462.3,62.6
		c-3.5,0-6.9,0-9.9,2c-1.9,1.3-2.5,3.6-1.7,5.5c0.7,1.8,2.7,2.7,5,2.4C460,71.8,462.9,67.5,462.3,62.6z"/>
	<path class="st1" d="M421.2,78.7c-2.6,0-5.1,0-7.7,0c0-1.8,0-3.6,0-6.1c-0.9,0.9-1.4,1.4-1.9,1.9c-3.7,4.9-11.7,6.5-16.6,3.1
		c-3.1-2.2-3.9-5.5-4-9c-0.2-8.6-0.1-17.3-0.1-26.1c2.8,0,5.5,0,8.5,0c0,0.6,0,1.3,0,2c0,6.5,0,13,0,19.5c0,0.7,0,1.5,0,2.2
		c0.1,3.4,0.9,4.8,3,5.5c2.5,0.8,5.6-0.3,7.3-2.6c1.9-2.6,2.9-5.5,2.9-8.8c0-5.2,0-10.4,0-15.7c0-0.7,0-1.4,0-2.3c2.9,0,5.6,0,8.5,0
		C421.2,54.7,421.2,66.6,421.2,78.7z"/>
	<path class="st1" d="M267.2,57.7c-3.6,0-7,0-10.7,0c0,7.1,0,14,0,21c-3,0-5.7,0-8.6,0c0-16.4,0-32.7,0-49.2c9.2,0,18.4,0,27.7,0
		c0,2.4,0,4.9,0,7.5c-6.3,0-12.6,0-19,0c0,4.2,0,8.1,0,12.4c3.4,0,6.9,0,10.6,0C267.2,52.2,267.2,54.8,267.2,57.7z"/>
	<path class="st1" d="M137.2,79.3c-2.8,0.1-5,0.4-6.9-2.2c-5-6.9-10.5-13.5-15.8-20.1c-0.4-0.5-0.8-0.9-1.7-1.1c0,7.7,0,15.4,0,23.3
		c-1.4,0-2.6,0-3.9,0c0-0.7-0.1-1.3-0.1-2c0-15.1,0-30.1,0-45.2c0-1.8,0.5-2.5,2.4-2.4c4.8,0.3,9.7-0.1,14.4,0.8
		c10.7,1.9,10.9,13.4,6.8,19c-3.1,4.2-7.5,5.5-12.3,6.1c-0.4,0-0.8,0.1-1.9,0.2C124.5,63.7,130.8,71.4,137.2,79.3z M113,52.3
		c4.1,0.1,8.2,0.6,11.9-1.3c3.5-1.8,5.3-4.6,5.3-8.5c0-3.5-1-6.6-4.5-8.1c-4.1-1.8-8.4-1.6-12.8-1C113,39.7,113,45.8,113,52.3z"/>
	<path class="st1" d="M194.3,43c0-4.6,0-9,0-13.6c1.3,0,2.5,0,3.8,0c0,16.5,0,33.1,0,49.8c-1.2,0-2.5,0-3.9,0
		c0.1-2.4,0.2-4.7,0.4-7.1c-0.2-0.1-0.3-0.1-0.5-0.2c-0.4,0.5-0.8,1-1.1,1.6c-4.5,7.4-14.4,8.8-19.8,2.8c-2.5-2.8-3.4-6.3-3.8-9.9
		c-0.6-5.8-0.1-11.6,3.3-16.6c4.2-6.2,10.6-7.7,17.6-7.1C191.5,42.8,192.8,42.9,194.3,43z M194.1,55.2c0-2.3,0.1-4.7-0.1-7
		c0-0.6-0.7-1.5-1.2-1.5c-2.2-0.4-4.4-0.8-6.6-0.8c-4.8,0-8.9,1.9-10.9,6.5c-2.6,6.1-2.7,12.5-0.4,18.8c1.3,3.8,4.1,5.4,8.1,5.3
		c4.6-0.1,7.1-3.1,8.9-6.7C194.3,65.2,194.2,60.2,194.1,55.2z"/>
	<path class="st1" d="M428.8,78.8c0-16.6,0-32.9,0-49.4c2.9,0,5.7,0,8.7,0c0,0.6,0.1,1.2,0.1,1.7c0,15.1,0,30.3,0,45.4
		c0,1.7-0.4,2.4-2.2,2.3C433.3,78.7,431.2,78.8,428.8,78.8z"/>
	<path class="st1" d="M309.4,42.6c2.8,0,5.3,0,8.1,0c-0.1,2-0.2,3.9-0.3,6.3c1.8-2.1,3.2-3.9,4.8-5.3c1.7-1.5,3.8-2.1,6-1.9
		c0,2.9,0,5.6,0,8.1c-2.1,0.4-4.1,0.4-5.6,1.2c-2.8,1.5-3.7,4.4-3.9,7.3c-0.4,5.9-0.4,11.9-0.5,17.8c0,0.8,0,1.6,0,2.5
		c-2.6,0-5,0.1-7.4-0.1c-0.4,0-1.1-0.9-1.1-1.4c-0.1-2-0.1-4-0.1-6c0-8.8,0-17.5,0-26.3C309.4,44.3,309.4,43.6,309.4,42.6z"/>
	<path class="st1" d="M212.7,61.7c0.1-6.5,1.9-12.4,7.6-16.5c6.9-5,20.8-3.8,23.5,9.2c1.4,6.9,0.8,13.4-3.3,19.3
		c-5,7.1-16.3,8.6-22.6,2.7c-3.3-3.1-4.4-7.2-4.9-11.5C212.8,63.8,212.8,62.8,212.7,61.7z M240.3,59.6c-0.3-1.3-0.5-4-1.3-6.5
		c-1.4-4.3-4.4-6.8-9-7.2c-4.6-0.4-8.4,1.2-10.6,5.3c-3.5,6.7-3.5,13.6,0.1,20.2c3.5,6.5,12.9,7,17.5,1.1
		C239.6,69.1,240.2,65.1,240.3,59.6z"/>
	<path class="st1" d="M159.8,58.8c0-2.4,0.3-4.7-0.1-7c-0.6-4.2-4-6.6-8.9-6c-3.4,0.4-6.7,1.4-10.1,2.1c-0.9-2.5-0.9-2.5,2-3.6
		c4.1-1.6,8.3-2.2,12.6-1.4c5.5,1,8.5,3.9,8.7,9.6c0.3,8.9,0.1,17.8,0.1,26.8c-1.2,0-2.3,0-3.7,0c0-2.2,0-4.4,0-6.6
		c-0.1-0.1-0.3-0.2-0.4-0.3c-0.4,0.5-0.9,1-1.3,1.6c-2.8,4.5-8.6,7-13.7,5.8c-6.7-1.5-9.1-9.2-4.5-14.4c3.4-3.8,7.9-5.1,12.6-5.9
		C155.2,59,157.5,59,159.8,58.8z M159.5,61.7c-3.4,0.5-6.8,0.8-10.2,1.6c-1.9,0.5-3.8,1.6-5.4,2.9c-2.1,1.9-2.4,4.5-1.3,7
		c1,2.3,3.1,3.2,5.5,3.3C155,76.6,160.9,69.1,159.5,61.7z"/>
	<path class="st1" d="M207.8,79.3c-1.3,0-2.4,0-3.6,0c0-12.1,0-24.1,0-36.2c1.1,0,2.3,0,3.6,0C207.8,55.1,207.8,67.1,207.8,79.3z"/>
	<path class="st1" d="M298.8,29.6c1.1,1.4,2,2.7,3.1,4.2c-3.8,1.8-7.5,3.5-11.3,5.3c-0.5-0.7-1-1.3-1.6-2
		C292.4,34.5,295.6,32.1,298.8,29.6z"/>
	<path class="st1" d="M208.9,32.3c0,1.4-1.5,3.1-2.9,3.1c-1.4,0.1-3-1.4-3-2.9c-0.1-1.5,1.5-3.2,3-3.2
		C207.4,29.3,208.9,30.9,208.9,32.3z"/>
</g>
</svg>
